<?xml version="1.0" encoding="utf-8"?>
<!-- Generator: Adobe Illustrator 28.4.1, SVG Export Plug-In . SVG Version: 6.00 Build 0)  -->
<svg version="1.1" id="_x32_" xmlns="http://www.w3.org/2000/svg" xmlns:xlink="http://www.w3.org/1999/xlink" x="0px" y="0px"
	 viewBox="0 0 800 800" style="enable-background:new 0 0 800 800;" xml:space="preserve">
<style type="text/css">
	.st0{fill:#26BC5B;stroke:#26BC5B;stroke-width:30;stroke-miterlimit:10;}
	.st1{fill:#FF007A;stroke:#FF007A;stroke-miterlimit:10;}
	.st2{fill:none;stroke:#6B6B6B;stroke-width:50;stroke-miterlimit:50;}
	.st3{fill:#9A0BB7;stroke:#9A0BB7;stroke-miterlimit:10;}
	.st4{fill:none;stroke:#9A0BB7;stroke-width:60;stroke-linecap:round;stroke-linejoin:round;stroke-miterlimit:128;}
	.st5{fill:none;stroke:#9A0BB7;stroke-width:48;stroke-linecap:round;stroke-linejoin:round;stroke-miterlimit:128;}
	.st6{fill:#0092FF;stroke:#0092FF;stroke-width:10;stroke-miterlimit:10;}
	.st7{fill:#FF0000;}
</style>
<g>
	<path class="st0" d="M617.4,318.4c3-10.3,4.7-21.2,4.7-32.5c0-55.3-38.2-101.6-89.7-114.4c-14.2-60-68-104.8-132.4-104.8
		s-118.2,44.8-132.5,104.8c-51.4,12.7-89.6,59.1-89.6,114.4c0,11.3,1.7,22.2,4.7,32.5c-32.2,25-52.9,63.8-52.9,107.7
		c0,75.2,60.9,136.1,136.1,136.1c19,0,37.2-3.9,53.6-10.9c2.5,2.1,5,4.1,7.6,5.9v176.1h145.8V557.2c2.6-1.9,5.1-3.8,7.5-5.8
		c16.6,7.1,34.7,10.9,53.8,10.9c75.2,0,136.1-61,136.1-136.1C670.3,382.3,649.6,343.4,617.4,318.4z M431.2,691.8h-62.5V577
		c10,2.6,20.4,3.9,31.2,3.9s21.2-1.3,31.2-3.9v114.8H431.2z M534.2,520.6c-12.9,0-25.4-2.5-37.3-7.6l-23.6-10.2l-0.3,0.3l-19.4,16.4
		c-6.8,5.6-14.3,10.2-22.3,13.4c-9.9,4.1-20.4,6.2-31.2,6.2s-21.4-2.2-31.2-6.2c-8-3.2-15.5-7.8-22.3-13.4l-19.4-16.4l-0.3-0.3
		L303.3,513c-11.9,5.1-24.4,7.6-37.3,7.6c-52.1,0-94.5-42.4-94.5-94.5c0-29.4,13.3-56.6,36.8-74.7l22.3-17.3l-7.8-27.2
		c-2-7.1-3-14.2-3-21c0-35.1,23.8-65.5,57.9-73.9l24.7-6.1l5.9-24.8c10.1-42.8,47.9-72.7,91.9-72.7s81.8,29.9,91.9,72.7l5.8,24.8
		l24.8,6.1c34.1,8.3,57.9,38.8,57.9,73.9c0,6.9-1.1,14-3,21l-7.8,27.2l22.3,17.3c23.4,18.1,36.8,45.3,36.8,74.7
		C628.6,478.2,586.2,520.6,534.2,520.6z"/>
</g>
</svg>
