<?xml version="1.0" encoding="utf-8"?>
<!-- Generator: Adobe Illustrator 28.4.1, SVG Export Plug-In . SVG Version: 6.00 Build 0)  -->
<svg version="1.1" id="_x32_" xmlns="http://www.w3.org/2000/svg" xmlns:xlink="http://www.w3.org/1999/xlink" x="0px" y="0px"
	 viewBox="0 0 800 800" style="enable-background:new 0 0 800 800;" xml:space="preserve">
<style type="text/css">
	.st0{fill:#26BC5B;stroke:#26BC5B;stroke-width:30;stroke-miterlimit:10;}
	.st1{fill:#FF007A;stroke:#FF007A;stroke-miterlimit:10;}
	.st2{fill:none;stroke:#6B6B6B;stroke-width:50;stroke-miterlimit:50;}
	.st3{fill:#9A0BB7;stroke:#9A0BB7;stroke-miterlimit:10;}
	.st4{fill:none;stroke:#9A0BB7;stroke-width:60;stroke-linecap:round;stroke-linejoin:round;stroke-miterlimit:128;}
	.st5{fill:none;stroke:#9A0BB7;stroke-width:48;stroke-linecap:round;stroke-linejoin:round;stroke-miterlimit:128;}
	.st6{fill:#0092FF;stroke:#0092FF;stroke-width:10;stroke-miterlimit:10;}
	.st7{fill:#FF0000;}
</style>
<path class="st1" d="M266.7,400h66.7c18.4,0,33.3-14.9,33.3-33.3s-14.9-33.3-33.3-33.3h-66.7c-18.4,0-33.3,14.9-33.3,33.3
	C233.3,385.1,248.3,400,266.7,400z M566.7,200H400v-66.7h33.3c18.4,0,33.3-14.9,33.3-33.3s-14.9-33.3-33.3-33.3h-66.7
	c-18.4,0-33.3,14.9-33.3,33.3v100h-100C159.7,200,100,259.7,100,333.3v200c0,18.4,14.9,33.3,33.3,33.3h200V700
	c0,18.4,14.9,33.3,33.3,33.3c18.4,0,33.3-14.9,33.3-33.3V566.7h266.7c18.4,0,33.3-14.9,33.3-33.3v-200
	C700,259.7,640.3,200,566.7,200z M433.3,333.3V500H166.6V333.3c0-36.8,29.8-66.7,66.7-66.7H452C439.9,286.8,433.4,309.8,433.3,333.3
	z M633.3,500H500V333.3c0-36.8,29.8-66.7,66.7-66.7c36.8,0,66.7,29.8,66.7,66.7L633.3,500L633.3,500z"/>
</svg>
