<?xml version="1.0" encoding="utf-8"?>
<!-- Generator: Adobe Illustrator 28.4.1, SVG Export Plug-In . SVG Version: 6.00 Build 0)  -->
<svg version="1.1" id="_x32_" xmlns="http://www.w3.org/2000/svg" xmlns:xlink="http://www.w3.org/1999/xlink" x="0px" y="0px"
	 viewBox="0 0 800 800" style="enable-background:new 0 0 800 800;" xml:space="preserve">
<style type="text/css">
	.st0{fill:#26BC5B;stroke:#26BC5B;stroke-width:30;stroke-miterlimit:10;}
	.st1{fill:#FF007A;stroke:#FF007A;stroke-miterlimit:10;}
	.st2{fill:none;stroke:#6B6B6B;stroke-width:50;stroke-miterlimit:50;}
	.st3{fill:#9A0BB7;stroke:#9A0BB7;stroke-miterlimit:10;}
	.st4{fill:none;stroke:#9A0BB7;stroke-width:60;stroke-linecap:round;stroke-linejoin:round;stroke-miterlimit:128;}
	.st5{fill:none;stroke:#9A0BB7;stroke-width:48;stroke-linecap:round;stroke-linejoin:round;stroke-miterlimit:128;}
	.st6{fill:#0092FF;stroke:#0092FF;stroke-width:10;stroke-miterlimit:10;}
	.st7{fill:#FF0000;}
</style>
<g>
	<g id="Page-1">
		<g id="Wall" transform="translate(1.000000, 1.000000)">
			<path id="Shape" class="st2" d="M368.4,661c0,11.3-9.2,20.5-20.5,20.5h-133c-11.3,0-20.5-9.2-20.5-20.5v-51.2
				c0-11.3,9.2-20.5,20.5-20.5h133c11.3,0,20.5,9.2,20.5,20.5V661L368.4,661z"/>
			<path id="Shape_00000041287185667819176080000012528413754609737622_" class="st2" d="M542.4,661c0,11.3-9.2,20.5-20.5,20.5h-133
				c-11.3,0-20.5-9.2-20.5-20.5v-51.2c0-11.3,9.2-20.5,20.5-20.5h133c11.3,0,20.5,9.2,20.5,20.5V661L542.4,661z"/>
			<path id="Shape_00000057865546901386976630000010757484502510611627_" class="st2" d="M716.2,661c0,11.3-9.2,20.5-20.5,20.5h-133
				c-11.3,0-20.5-9.2-20.5-20.5v-51.2c0-11.3,9.2-20.5,20.5-20.5h133c11.3,0,20.5,9.2,20.5,20.5V661L716.2,661z"/>
			<path id="Shape_00000181067645922676716780000012269372363662460563_" class="st2" d="M194.4,661c0,11.3-9.2,20.5-20.5,20.5
				h-71.6c-11.3,0-20.5-9.2-20.5-20.5v-51.2c0-11.3,9.2-20.5,20.5-20.5h71.6c11.3,0,20.5,9.2,20.5,20.5V661L194.4,661z"/>
			<path id="Shape_00000065759776373059234160000012148915219336373124_" class="st2" d="M368.4,286.5c0,11.3-9.2,20.5-20.5,20.5
				h-133c-11.3,0-20.5-9.2-20.5-20.5v-51.2c0-11.3,9.2-20.5,20.5-20.5h133c11.3,0,20.5,9.2,20.5,20.5V286.5L368.4,286.5z"/>
			<path id="Shape_00000139252160752630312830000000456979022128382131_" class="st2" d="M542.4,286.5c0,11.3-9.2,20.5-20.5,20.5
				h-133c-11.3,0-20.5-9.2-20.5-20.5v-51.2c0-11.3,9.2-20.5,20.5-20.5h133c11.3,0,20.5,9.2,20.5,20.5V286.5L542.4,286.5z"/>
			<path id="Shape_00000021817327018166884520000017896019336095506840_" class="st2" d="M716.2,286.5c0,11.3-9.2,20.5-20.5,20.5
				h-133c-11.3,0-20.5-9.2-20.5-20.5v-51.2c0-11.3,9.2-20.5,20.5-20.5h133c11.3,0,20.5,9.2,20.5,20.5V286.5L716.2,286.5z"/>
			<path id="Shape_00000081627453538547778350000007955090142290382751_" class="st2" d="M194.4,286.5c0,11.3-9.2,20.5-20.5,20.5
				h-71.6c-11.3,0-20.5-9.2-20.5-20.5v-51.2c0-11.3,9.2-20.5,20.5-20.5h71.6c11.3,0,20.5,9.2,20.5,20.5V286.5L194.4,286.5z"/>
			<path id="Shape_00000081631556851468188750000018194734075435663268_" class="st2" d="M368.4,476.8c0,11.3-9.2,20.5-20.5,20.5
				h-133c-11.3,0-20.5-9.2-20.5-20.5v-51.2c0-11.3,9.2-20.5,20.5-20.5h133c11.3,0,20.5,9.2,20.5,20.5V476.8L368.4,476.8z"/>
			<path id="Shape_00000047059901278775131150000009440083400381894276_" class="st2" d="M542.4,476.8c0,11.3-9.2,20.5-20.5,20.5
				h-133c-11.3,0-20.5-9.2-20.5-20.5v-51.2c0-11.3,9.2-20.5,20.5-20.5h133c11.3,0,20.5,9.2,20.5,20.5V476.8L542.4,476.8z"/>
			<path id="Shape_00000149345547045224886050000015336360922879030680_" class="st2" d="M716.2,476.8c0,11.3-9.2,20.5-20.5,20.5
				h-133c-11.3,0-20.5-9.2-20.5-20.5v-51.2c0-11.3,9.2-20.5,20.5-20.5h133c11.3,0,20.5,9.2,20.5,20.5V476.8L716.2,476.8z"/>
			<path id="Shape_00000047018358848699669820000004855007248238286233_" class="st2" d="M194.4,476.8c0,11.3-9.2,20.5-20.5,20.5
				h-71.6c-11.3,0-20.5-9.2-20.5-20.5v-51.2c0-11.3,9.2-20.5,20.5-20.5h71.6c11.3,0,20.5,9.2,20.5,20.5V476.8L194.4,476.8z"/>
			<path id="Shape_00000019650504043518578580000006583800191363115418_" class="st2" d="M255.8,384.8c0,11.3-9.2,20.5-20.5,20.5
				h-133c-11.3,0-20.5-9.2-20.5-20.5v-51.2c0-11.3,9.2-20.5,20.5-20.5h133c11.3,0,20.5,9.2,20.5,20.5V384.8L255.8,384.8z"/>
			<path id="Shape_00000050642660366758004960000005618560421255173055_" class="st2" d="M429.8,384.8c0,11.3-9.2,20.5-20.5,20.5
				h-133c-11.3,0-20.5-9.2-20.5-20.5v-51.2c0-11.3,9.2-20.5,20.5-20.5h133c11.3,0,20.5,9.2,20.5,20.5V384.8L429.8,384.8z"/>
			<path id="Shape_00000083772673706753590680000012018306950967927964_" class="st2" d="M603.8,384.8c0,11.3-9.2,20.5-20.5,20.5
				h-133c-11.3,0-20.5-9.2-20.5-20.5v-51.2c0-11.3,9.2-20.5,20.5-20.5h133c11.3,0,20.5,9.2,20.5,20.5V384.8L603.8,384.8z"/>
			<path id="Shape_00000067952148535416718880000003866200820309801145_" class="st2" d="M255.8,188.1c0,11.3-9.2,20.5-20.5,20.5
				h-133c-11.3,0-20.5-9.2-20.5-20.5V137c0-11.3,9.2-20.5,20.5-20.5h133c11.3,0,20.5,9.2,20.5,20.5V188.1L255.8,188.1z"/>
			<path id="Shape_00000086668947179980878210000016477608902520185501_" class="st2" d="M429.8,188.1c0,11.3-9.2,20.5-20.5,20.5
				h-133c-11.3,0-20.5-9.2-20.5-20.5V137c0-11.3,9.2-20.5,20.5-20.5h133c11.3,0,20.5,9.2,20.5,20.5V188.1L429.8,188.1z"/>
			<path id="Shape_00000163792297702385019990000002979774409499933631_" class="st2" d="M603.8,188.1c0,11.3-9.2,20.5-20.5,20.5
				h-133c-11.3,0-20.5-9.2-20.5-20.5V137c0-11.3,9.2-20.5,20.5-20.5h133c11.3,0,20.5,9.2,20.5,20.5V188.1L603.8,188.1z"/>
			<path id="Shape_00000183216253760610891630000013892634956931943319_" class="st2" d="M255.8,569c0,11.3-9.2,20.5-20.5,20.5h-133
				c-11.3,0-20.5-9.2-20.5-20.5v-51.2c0-11.3,9.2-20.5,20.5-20.5h133c11.3,0,20.5,9.2,20.5,20.5V569L255.8,569z"/>
			<path id="Shape_00000119822980235003492880000005851002396859214984_" class="st2" d="M429.8,569c0,11.3-9.2,20.5-20.5,20.5h-133
				c-11.3,0-20.5-9.2-20.5-20.5v-51.2c0-11.3,9.2-20.5,20.5-20.5h133c11.3,0,20.5,9.2,20.5,20.5V569L429.8,569z"/>
			<path id="Shape_00000018920802592256011850000015546936476516086436_" class="st2" d="M603.8,569c0,11.3-9.2,20.5-20.5,20.5h-133
				c-11.3,0-20.5-9.2-20.5-20.5v-51.2c0-11.3,9.2-20.5,20.5-20.5h133c11.3,0,20.5,9.2,20.5,20.5V569L603.8,569z"/>
			<path id="Shape_00000150788389710080406870000001133379803363155590_" class="st2" d="M716.2,569c0,11.3-9.2,20.5-20.5,20.5
				h-71.6c-11.3,0-20.5-9.2-20.5-20.5v-51.2c0-11.3,9.2-20.5,20.5-20.5h71.6c11.3,0,20.5,9.2,20.5,20.5V569L716.2,569z"/>
		</g>
	</g>
</g>
</svg>
