<?xml version="1.0" encoding="utf-8"?>
<!-- Generator: Adobe Illustrator 28.4.1, SVG Export Plug-In . SVG Version: 6.00 Build 0)  -->
<svg version="1.1" id="_x32_" xmlns="http://www.w3.org/2000/svg" xmlns:xlink="http://www.w3.org/1999/xlink" x="0px" y="0px"
	 viewBox="0 0 800 800" style="enable-background:new 0 0 800 800;" xml:space="preserve">
<style type="text/css">
	.st0{fill:#26BC5B;stroke:#26BC5B;stroke-width:30;stroke-miterlimit:10;}
	.st1{fill:#FF007A;stroke:#FF007A;stroke-miterlimit:10;}
	.st2{fill:none;stroke:#6B6B6B;stroke-width:50;stroke-miterlimit:50;}
	.st3{fill:#9A0BB7;stroke:#9A0BB7;stroke-miterlimit:10;}
	.st4{fill:none;stroke:#9A0BB7;stroke-width:60;stroke-linecap:round;stroke-linejoin:round;stroke-miterlimit:128;}
	.st5{fill:none;stroke:#9A0BB7;stroke-width:48;stroke-linecap:round;stroke-linejoin:round;stroke-miterlimit:128;}
	.st6{fill:#0092FF;stroke:#0092FF;stroke-width:10;stroke-miterlimit:10;}
	.st7{fill:#FF0000;}
</style>
<g>
	<g>
		<path class="st6" d="M511.1,385.8H307.6c-1.5,0-2.6,1.2-2.6,2.6v107.4c0,1.5,1.2,2.6,2.6,2.6h203.4c1.4,0,2.6-1.2,2.6-2.6V388.4
			C513.7,386.9,512.6,385.8,511.1,385.8z M482.7,467.4H336.1v-50.6h146.6V467.4z"/>
		<path class="st6" d="M797.5,441.9c1.4,0,2.6-1.2,2.6-2.6v-34.4c0-1.5-1.2-2.6-2.6-2.6H591.1V238.6c-0.1-34.7-11.6-67.8-32.6-93.3
			c-11-13.3-24.1-23.9-39-31.5c-16-8.1-33.7-12.4-51.4-12.4c-17.7,0-35.5,4.3-51.5,12.4c-21.9,11.2-40.1,29.2-52.8,51.9
			c-12.2,21.7-18.6,46.9-18.6,72.9c0,29.9,24.3,54.2,54.2,54.2c29.9,0,54.2-24.3,54.2-54.2c-0.1-9.3,2.8-18.3,7.6-24.1
			c2.3-2.8,4.2-3.9,4.7-4.1c1.1-0.5,1.7-0.6,2.2-0.6s1.2,0.1,2.1,0.5c2.8,1.6,5.5,4.5,7.6,8.3c3.2,5.7,4.9,12.8,4.9,20v69.7H336.1
			v-69.7c0-34.6-11.6-67.7-32.6-93.3c-10.9-13.2-24-23.8-38.9-31.5c-16-8.1-33.7-12.4-51.4-12.4c-17.8,0-35.6,4.3-51.5,12.4
			c-21.9,11.3-40.2,29.3-52.8,51.9c-12.2,21.8-18.6,47-18.6,72.9c0,29.9,24.3,54.2,54.2,54.2s54.2-24.3,54.2-54.2
			c0-9.2,2.9-18.4,7.6-24.1c1.6-1.9,3.2-3.3,4.6-4.1c1.1-0.5,1.7-0.6,2.3-0.6c0.5,0,1.1,0.1,2,0.5c2.8,1.6,5.5,4.5,7.7,8.3
			c3.1,5.6,4.8,12.7,4.8,20v163.5H2.6c-1.5,0-2.6,1.2-2.6,2.6v34.4c0,1.5,1.2,2.6,2.6,2.6h225c0,0,0,189.7,0,189.8
			c-8.6,2.9-15.7,6.5-21,9.3l-6,3.2c-7,3.8-13,7-19.7,9.5c-6.9,2.5-17.1,5.3-34.4,5.4c-12.4,0-22.1-1.4-31.5-4.4
			c-5.3-1.7-10.2-3.9-16.7-7.3l-6-3.2c-6.9-3.8-14.7-8-24.5-11.6c-14.3-5.3-29.7-7.8-48.1-7.8H2.5c-1.5,0-2.6,1.2-2.6,2.6v34.4
			c0,1.5,1.2,2.6,2.6,2.6h17.2c12.3,0,22,1.3,31.5,4.3c6.4,2.2,11.8,4.8,16.7,7.3l5.2,2.8c7.1,3.9,15.2,8.3,25.2,12
			c14.2,5.3,29.9,7.9,48.1,7.9c16.4,0,30.8-2.1,43.8-6.4c9-3,16.6-6.6,22.8-9.9l6.6-3.5c6.7-3.6,12.6-6.8,19.1-9.2l1.3-0.5
			c1.3-0.4,2.6-0.9,4.1-1.3c8.4-2.5,17.6-3.6,28.9-3.6c12.3,0,22,1.3,31.5,4.3c3.4,1.2,6.6,2.4,9.7,3.8c2.3,1.1,4.6,2.2,7,3.5
			l5.3,2.8c7.1,3.9,15.1,8.3,25.2,12c14.3,5.3,30,7.9,48.1,7.9c16.5,0,30.8-2.1,43.8-6.4c9.5-3.1,17.2-6.9,22.8-9.9l7-3.7
			c6.6-3.6,12.3-6.6,18.7-9c2.1-0.8,4.3-1.4,6.6-2.1c8-2.2,16.9-3.2,27.8-3.2c12.3,0,22,1.3,31.5,4.3c3.8,1.3,7.2,2.7,10.6,4.3
			c2,0.9,4.1,1.9,6.1,3l5.2,2.8c7.1,3.9,15.2,8.3,25.2,12c14.3,5.3,30,7.9,48.1,7.9c16.5,0,30.8-2.1,43.8-6.4
			c9.1-2.9,16.7-6.6,22.9-9.9l6.3-3.3c6.9-3.7,12.8-6.9,19.5-9.3c6.7-2.5,16.8-5.4,34.4-5.4h17.2c1.4,0,2.6-1.2,2.6-2.6v-34.4
			c0-1.5-1.2-2.6-2.6-2.6h-17.2c-16.4,0-30.7,2.1-43.8,6.3c-9.5,3.1-17.2,6.9-22.8,9.9l-5.8,3.1c-7,3.8-13.1,7.1-19.9,9.6
			c-6.9,2.5-17.1,5.4-34.5,5.4c-12.2,0-22.2-1.4-31.5-4.4c-5.3-1.7-10.2-3.9-16.7-7.3l-5.1-2.8c-2.9-1.6-5.9-3.2-9.1-4.8v-198h206.5
			V441.9z M482.7,631.1c-8.9,2.9-16.4,6.6-22.6,9.8l-6.1,3.3c-6.9,3.7-12.9,7-19.6,9.4c-6.8,2.5-16.9,5.4-34.4,5.4
			c-12.2,0-22.2-1.4-31.5-4.4c-5.2-1.7-10.2-3.9-16.7-7.3l-5.3-2.8c-3.2-1.8-6.7-3.6-10.4-5.5v-63.4h146.6
			C482.7,575.7,482.7,631.1,482.7,631.1z M560,628.1c-10.1-2.3-20.7-3.4-32.2-3.4h-1.1c-4.6,0-8.9,0.2-13,0.5v-77.9
			c0-1.5-1.2-2.6-2.6-2.6H307.6c-1.5,0-2.6,1.2-2.6,2.6v80.5c-9.5-2.1-19.9-3.1-31.8-3.1c0,0,0,0-0.1,0c-5.4,0-10.1,0.2-14.5,0.6
			V238.8c0-12.8-3.1-24.9-8.9-35.1c-5.2-9.3-12.5-16.7-20.5-20.8c-5.3-2.7-10.6-4-16.2-4c-5.6,0-11,1.3-16.2,4
			c-5.2,2.6-10.2,6.7-14.5,11.9c-9.5,11.3-14.9,27.3-14.9,44c0,12.8-10.4,23.1-23.1,23.1c-12.8,0-23.1-10.4-23.1-23.1
			c0-20.5,5.1-40.5,14.7-57.7c9.7-17.3,23.5-31,39.9-39.4c11.5-5.9,24.4-9,37.4-9c12.8,0,25.7,3.1,37.2,9
			c11,5.7,20.8,13.6,29.2,23.6c16.4,19.9,25.4,46,25.4,73.5v98.1c0,1.4,1.2,2.6,2.6,2.6h203.4c1.4,0,2.6-1.2,2.6-2.6v-98.1
			c0-12.8-3.1-24.9-8.8-35.1c-5.2-9.4-12.5-16.7-20.6-20.7c-5.2-2.7-10.5-4-16.2-4c-5.6,0-11,1.3-16.2,4
			c-5.2,2.6-10.2,6.7-14.6,11.9c-9.5,11.5-14.9,27.5-14.8,43.9c0,12.8-10.4,23.1-23.2,23.1s-23.1-10.4-23.1-23.1
			c0-20.6,5.1-40.6,14.7-57.7c9.7-17.3,23.5-31,39.9-39.4c11.5-5.9,24.4-9,37.4-9c12.8,0,25.7,3.1,37.2,9
			c11.1,5.8,20.9,13.7,29.1,23.6c16.4,19.9,25.4,46,25.5,73.5V628.1L560,628.1z"/>
	</g>
</g>
</svg>
