<?xml version="1.0" encoding="utf-8"?>
<!-- Generator: Adobe Illustrator 28.4.1, SVG Export Plug-In . SVG Version: 6.00 Build 0)  -->
<svg version="1.1" id="_x32_" xmlns="http://www.w3.org/2000/svg" xmlns:xlink="http://www.w3.org/1999/xlink" x="0px" y="0px"
	 viewBox="0 0 800 800" style="enable-background:new 0 0 800 800;" xml:space="preserve">
<style type="text/css">
	.st0{fill:#26BC5B;stroke:#26BC5B;stroke-width:30;stroke-miterlimit:10;}
	.st1{fill:#FF007A;stroke:#FF007A;stroke-miterlimit:10;}
	.st2{fill:none;stroke:#6B6B6B;stroke-width:50;stroke-miterlimit:50;}
	.st3{fill:#9A0BB7;stroke:#9A0BB7;stroke-miterlimit:10;}
	.st4{fill:none;stroke:#9A0BB7;stroke-width:60;stroke-linecap:round;stroke-linejoin:round;stroke-miterlimit:128;}
	.st5{fill:none;stroke:#9A0BB7;stroke-width:48;stroke-linecap:round;stroke-linejoin:round;stroke-miterlimit:128;}
	.st6{fill:#0092FF;stroke:#0092FF;stroke-width:10;stroke-miterlimit:10;}
	.st7{fill:#FF0000;}
	.st8{fill:none;stroke:#000000;stroke-width:66.6667;stroke-linecap:round;stroke-linejoin:round;stroke-miterlimit:133.3333;}
	.st9{fill:none;stroke:#FF0000;stroke-width:60;stroke-linecap:round;stroke-linejoin:round;stroke-miterlimit:10;}
</style>
<g>
	<path class="st0" d="M-1022.6,318.4c3-10.3,4.7-21.2,4.7-32.5c0-55.3-38.2-101.6-89.7-114.4c-14.2-60-68-104.8-132.4-104.8
		s-118.2,44.8-132.5,104.8c-51.4,12.7-89.6,59.1-89.6,114.4c0,11.3,1.7,22.2,4.7,32.5c-32.2,25-52.9,63.8-52.9,107.7
		c0,75.2,60.9,136.1,136.1,136.1c19,0,37.2-3.9,53.6-10.9c2.5,2.1,5,4.1,7.6,5.9v176.1h145.8V557.2c2.6-1.9,5.1-3.8,7.5-5.8
		c16.6,7.1,34.7,10.9,53.8,10.9c75.2,0,136.1-61,136.1-136.1C-969.7,382.3-990.4,343.4-1022.6,318.4z M-1208.8,691.8h-62.5V577
		c10,2.6,20.4,3.9,31.2,3.9s21.2-1.3,31.2-3.9v114.8H-1208.8z M-1105.8,520.6c-12.9,0-25.4-2.5-37.3-7.6l-23.6-10.2l-0.3,0.3
		l-19.4,16.4c-6.8,5.6-14.3,10.2-22.3,13.4c-9.9,4.1-20.4,6.2-31.2,6.2s-21.4-2.2-31.2-6.2c-8-3.2-15.5-7.8-22.3-13.4l-19.4-16.4
		l-0.3-0.3l-23.6,10.2c-11.9,5.1-24.4,7.6-37.3,7.6c-52.1,0-94.5-42.4-94.5-94.5c0-29.4,13.3-56.6,36.8-74.7l22.3-17.3l-7.8-27.2
		c-2-7.1-3-14.2-3-21c0-35.1,23.8-65.5,57.9-73.9l24.7-6.1l5.9-24.8c10.1-42.8,47.9-72.7,91.9-72.7s81.8,29.9,91.9,72.7l5.8,24.8
		l24.8,6.1c34.1,8.3,57.9,38.8,57.9,73.9c0,6.9-1.1,14-3,21l-7.8,27.2l22.3,17.3c23.4,18.1,36.8,45.3,36.8,74.7
		C-1011.4,478.2-1053.8,520.6-1105.8,520.6z"/>
</g>
<path class="st1" d="M-2193.3,400h66.7c18.4,0,33.3-14.9,33.3-33.3s-14.9-33.3-33.3-33.3h-66.7c-18.4,0-33.3,14.9-33.3,33.3
	C-2226.7,385.1-2211.7,400-2193.3,400z M-1893.3,200H-2060v-66.7h33.3c18.4,0,33.3-14.9,33.3-33.3s-14.9-33.3-33.3-33.3h-66.7
	c-18.4,0-33.3,14.9-33.3,33.3v100h-100c-73.6,0-133.3,59.7-133.3,133.3v200c0,18.4,14.9,33.3,33.3,33.3h200V700
	c0,18.4,14.9,33.3,33.3,33.3c18.4,0,33.3-14.9,33.3-33.3V566.7h266.7c18.4,0,33.3-14.9,33.3-33.3v-200
	C-1760,259.7-1819.7,200-1893.3,200z M-2026.7,333.3V500h-266.7V333.3c0-36.8,29.8-66.7,66.7-66.7h218.7
	C-2020.1,286.8-2026.6,309.8-2026.7,333.3z M-1826.7,500H-1960V333.3c0-36.8,29.8-66.7,66.7-66.7c36.8,0,66.7,29.8,66.7,66.7
	L-1826.7,500L-1826.7,500z"/>
<g>
	<g id="Page-1">
		<g id="Wall" transform="translate(1.000000, 1.000000)">
			<path id="Shape" class="st2" d="M-2911.6,661c0,11.3-9.2,20.5-20.5,20.5h-133c-11.3,0-20.5-9.2-20.5-20.5v-51.2
				c0-11.3,9.2-20.5,20.5-20.5h133c11.3,0,20.5,9.2,20.5,20.5V661L-2911.6,661z"/>
			<path id="Shape_00000041287185667819176080000012528413754609737622_" class="st2" d="M-2737.6,661c0,11.3-9.2,20.5-20.5,20.5
				h-133c-11.3,0-20.5-9.2-20.5-20.5v-51.2c0-11.3,9.2-20.5,20.5-20.5h133c11.3,0,20.5,9.2,20.5,20.5V661L-2737.6,661z"/>
			<path id="Shape_00000057865546901386976630000010757484502510611627_" class="st2" d="M-2563.8,661c0,11.3-9.2,20.5-20.5,20.5
				h-133c-11.3,0-20.5-9.2-20.5-20.5v-51.2c0-11.3,9.2-20.5,20.5-20.5h133c11.3,0,20.5,9.2,20.5,20.5V661L-2563.8,661z"/>
			<path id="Shape_00000181067645922676716780000012269372363662460563_" class="st2" d="M-3085.6,661c0,11.3-9.2,20.5-20.5,20.5
				h-71.6c-11.3,0-20.5-9.2-20.5-20.5v-51.2c0-11.3,9.2-20.5,20.5-20.5h71.6c11.3,0,20.5,9.2,20.5,20.5V661L-3085.6,661z"/>
			<path id="Shape_00000065759776373059234160000012148915219336373124_" class="st2" d="M-2911.6,286.5c0,11.3-9.2,20.5-20.5,20.5
				h-133c-11.3,0-20.5-9.2-20.5-20.5v-51.2c0-11.3,9.2-20.5,20.5-20.5h133c11.3,0,20.5,9.2,20.5,20.5V286.5L-2911.6,286.5z"/>
			<path id="Shape_00000139252160752630312830000000456979022128382131_" class="st2" d="M-2737.6,286.5c0,11.3-9.2,20.5-20.5,20.5
				h-133c-11.3,0-20.5-9.2-20.5-20.5v-51.2c0-11.3,9.2-20.5,20.5-20.5h133c11.3,0,20.5,9.2,20.5,20.5V286.5L-2737.6,286.5z"/>
			<path id="Shape_00000021817327018166884520000017896019336095506840_" class="st2" d="M-2563.8,286.5c0,11.3-9.2,20.5-20.5,20.5
				h-133c-11.3,0-20.5-9.2-20.5-20.5v-51.2c0-11.3,9.2-20.5,20.5-20.5h133c11.3,0,20.5,9.2,20.5,20.5V286.5L-2563.8,286.5z"/>
			<path id="Shape_00000081627453538547778350000007955090142290382751_" class="st2" d="M-3085.6,286.5c0,11.3-9.2,20.5-20.5,20.5
				h-71.6c-11.3,0-20.5-9.2-20.5-20.5v-51.2c0-11.3,9.2-20.5,20.5-20.5h71.6c11.3,0,20.5,9.2,20.5,20.5V286.5L-3085.6,286.5z"/>
			<path id="Shape_00000081631556851468188750000018194734075435663268_" class="st2" d="M-2911.6,476.8c0,11.3-9.2,20.5-20.5,20.5
				h-133c-11.3,0-20.5-9.2-20.5-20.5v-51.2c0-11.3,9.2-20.5,20.5-20.5h133c11.3,0,20.5,9.2,20.5,20.5V476.8L-2911.6,476.8z"/>
			<path id="Shape_00000047059901278775131150000009440083400381894276_" class="st2" d="M-2737.6,476.8c0,11.3-9.2,20.5-20.5,20.5
				h-133c-11.3,0-20.5-9.2-20.5-20.5v-51.2c0-11.3,9.2-20.5,20.5-20.5h133c11.3,0,20.5,9.2,20.5,20.5V476.8L-2737.6,476.8z"/>
			<path id="Shape_00000149345547045224886050000015336360922879030680_" class="st2" d="M-2563.8,476.8c0,11.3-9.2,20.5-20.5,20.5
				h-133c-11.3,0-20.5-9.2-20.5-20.5v-51.2c0-11.3,9.2-20.5,20.5-20.5h133c11.3,0,20.5,9.2,20.5,20.5V476.8L-2563.8,476.8z"/>
			<path id="Shape_00000047018358848699669820000004855007248238286233_" class="st2" d="M-3085.6,476.8c0,11.3-9.2,20.5-20.5,20.5
				h-71.6c-11.3,0-20.5-9.2-20.5-20.5v-51.2c0-11.3,9.2-20.5,20.5-20.5h71.6c11.3,0,20.5,9.2,20.5,20.5V476.8L-3085.6,476.8z"/>
			<path id="Shape_00000019650504043518578580000006583800191363115418_" class="st2" d="M-3024.2,384.8c0,11.3-9.2,20.5-20.5,20.5
				h-133c-11.3,0-20.5-9.2-20.5-20.5v-51.2c0-11.3,9.2-20.5,20.5-20.5h133c11.3,0,20.5,9.2,20.5,20.5V384.8L-3024.2,384.8z"/>
			<path id="Shape_00000050642660366758004960000005618560421255173055_" class="st2" d="M-2850.2,384.8c0,11.3-9.2,20.5-20.5,20.5
				h-133c-11.3,0-20.5-9.2-20.5-20.5v-51.2c0-11.3,9.2-20.5,20.5-20.5h133c11.3,0,20.5,9.2,20.5,20.5V384.8L-2850.2,384.8z"/>
			<path id="Shape_00000083772673706753590680000012018306950967927964_" class="st2" d="M-2676.2,384.8c0,11.3-9.2,20.5-20.5,20.5
				h-133c-11.3,0-20.5-9.2-20.5-20.5v-51.2c0-11.3,9.2-20.5,20.5-20.5h133c11.3,0,20.5,9.2,20.5,20.5V384.8L-2676.2,384.8z"/>
			<path id="Shape_00000067952148535416718880000003866200820309801145_" class="st2" d="M-3024.2,188.1c0,11.3-9.2,20.5-20.5,20.5
				h-133c-11.3,0-20.5-9.2-20.5-20.5V137c0-11.3,9.2-20.5,20.5-20.5h133c11.3,0,20.5,9.2,20.5,20.5V188.1L-3024.2,188.1z"/>
			<path id="Shape_00000086668947179980878210000016477608902520185501_" class="st2" d="M-2850.2,188.1c0,11.3-9.2,20.5-20.5,20.5
				h-133c-11.3,0-20.5-9.2-20.5-20.5V137c0-11.3,9.2-20.5,20.5-20.5h133c11.3,0,20.5,9.2,20.5,20.5V188.1L-2850.2,188.1z"/>
			<path id="Shape_00000163792297702385019990000002979774409499933631_" class="st2" d="M-2676.2,188.1c0,11.3-9.2,20.5-20.5,20.5
				h-133c-11.3,0-20.5-9.2-20.5-20.5V137c0-11.3,9.2-20.5,20.5-20.5h133c11.3,0,20.5,9.2,20.5,20.5V188.1L-2676.2,188.1z"/>
			<path id="Shape_00000183216253760610891630000013892634956931943319_" class="st2" d="M-3024.2,569c0,11.3-9.2,20.5-20.5,20.5
				h-133c-11.3,0-20.5-9.2-20.5-20.5v-51.2c0-11.3,9.2-20.5,20.5-20.5h133c11.3,0,20.5,9.2,20.5,20.5V569L-3024.2,569z"/>
			<path id="Shape_00000119822980235003492880000005851002396859214984_" class="st2" d="M-2850.2,569c0,11.3-9.2,20.5-20.5,20.5
				h-133c-11.3,0-20.5-9.2-20.5-20.5v-51.2c0-11.3,9.2-20.5,20.5-20.5h133c11.3,0,20.5,9.2,20.5,20.5V569L-2850.2,569z"/>
			<path id="Shape_00000018920802592256011850000015546936476516086436_" class="st2" d="M-2676.2,569c0,11.3-9.2,20.5-20.5,20.5
				h-133c-11.3,0-20.5-9.2-20.5-20.5v-51.2c0-11.3,9.2-20.5,20.5-20.5h133c11.3,0,20.5,9.2,20.5,20.5V569L-2676.2,569z"/>
			<path id="Shape_00000150788389710080406870000001133379803363155590_" class="st2" d="M-2563.8,569c0,11.3-9.2,20.5-20.5,20.5
				h-71.6c-11.3,0-20.5-9.2-20.5-20.5v-51.2c0-11.3,9.2-20.5,20.5-20.5h71.6c11.3,0,20.5,9.2,20.5,20.5V569L-2563.8,569z"/>
		</g>
	</g>
</g>
<g>
	<path class="st3" d="M423.9,524.4v30.2c0,4.9-2,9.5-5.4,13.1c-3.4,3.4-8.2,5.4-13.1,5.4c-4.9,0-9.5-2-13.1-5.4
		c-3.4-3.4-5.4-8.2-5.4-13.1v-31.1c-12.2-2-23.9-6.4-34.3-13.1c-10.4-6.6-19.4-15.3-26.5-25.4c-2.8-3.1-4.4-7.1-4.4-11.3
		c0-2.4,0.5-4.7,1.4-7c0.9-2.1,2.3-4.2,4-5.8c1.7-1.6,3.8-2.9,6-3.8c2.2-0.9,4.6-1.2,7-1.1c2.3,0,4.7,0.5,6.9,1.5
		c2.1,1,4,2.5,5.5,4.3c8.8,11.5,20.7,20.2,34.4,25v-69.7c-36.6-14.6-55-35.7-55-63.5c0.5-14.9,6.4-29,16.5-40
		c10.1-10.9,23.7-18,38.5-19.7v-30.5c0-4.9,2-9.5,5.4-13.1c3.4-3.4,8.2-5.4,13.1-5.4c4.9,0,9.5,2,13.1,5.4c3.4,3.4,5.4,8.2,5.4,13.1
		v30.2c10.3,1.5,20.1,5.2,29,10.7c8.8,5.5,16.5,12.7,22.4,21.2c2.4,3.2,3.9,7,4.1,11c0.1,2.3-0.3,4.7-1.2,6.9
		c-0.9,2.2-2.1,4.2-3.8,5.9s-3.6,3-5.8,4c-2.1,0.9-4.5,1.4-6.9,1.4c-2.5,0-4.9-0.6-7.1-1.6c-2.2-1-4.2-2.6-5.8-4.4
		c-6.5-8.2-15.2-14.4-25-18.1v61.9l6.9,2.7c34.9,13.5,56.6,33.3,56.6,64.9c-0.5,16.8-7.3,32.7-19.1,44.7
		C456.5,516.7,440.6,523.7,423.9,524.4z M387.1,376.5V332c-4.5,1.6-8.2,4.6-10.9,8.5c-2.7,3.9-4,8.5-4,13.2
		c0.3,4.6,1.7,9.2,4.4,13.1c2.6,3.9,6.3,7,10.5,8.9V376.5z M447.6,460.9c0-13.5-9.4-21.5-23.6-27.5v55c6.8-0.9,12.9-4.4,17.3-9.6
		c4.4-5.2,6.6-11.9,6.4-18.7V460.9z"/>
	<path class="st4" d="M416,167H235c-29.1,0-57.1,11.6-77.8,32.2s-32.2,48.6-32.2,77.8v274.9c0,29.1,11.6,57.1,32.2,77.8
		s48.6,32.2,77.8,32.2H565c29.1,0,57.1-11.6,77.8-32.2s32.2-48.6,32.2-77.8V385.1"/>
	<path class="st4" d="M519.3,293.7l146.8-146.8"/>
	<path class="st5" d="M550.7,138.1h124.2v124.6"/>
</g>
<g>
	<g>
		<path class="st6" d="M-4408.9,385.8h-203.5c-1.5,0-2.6,1.2-2.6,2.6v107.4c0,1.5,1.2,2.6,2.6,2.6h203.4c1.4,0,2.6-1.2,2.6-2.6
			V388.4C-4406.3,386.9-4407.4,385.8-4408.9,385.8z M-4437.3,467.4h-146.6v-50.6h146.6V467.4z"/>
		<path class="st6" d="M-4122.5,441.9c1.4,0,2.6-1.2,2.6-2.6v-34.4c0-1.5-1.2-2.6-2.6-2.6h-206.4V238.6
			c-0.1-34.7-11.6-67.8-32.6-93.3c-11-13.3-24.1-23.9-39-31.5c-16-8.1-33.7-12.4-51.4-12.4c-17.7,0-35.5,4.3-51.5,12.4
			c-21.9,11.2-40.1,29.2-52.8,51.9c-12.2,21.7-18.6,46.9-18.6,72.9c0,29.9,24.3,54.2,54.2,54.2s54.2-24.3,54.2-54.2
			c-0.1-9.3,2.8-18.3,7.6-24.1c2.3-2.8,4.2-3.9,4.7-4.1c1.1-0.5,1.7-0.6,2.2-0.6s1.2,0.1,2.1,0.5c2.8,1.6,5.5,4.5,7.6,8.3
			c3.2,5.7,4.9,12.8,4.9,20v69.7h-146.6v-69.7c0-34.6-11.6-67.7-32.6-93.3c-10.9-13.2-24-23.8-38.9-31.5
			c-16-8.1-33.7-12.4-51.4-12.4c-17.8,0-35.6,4.3-51.5,12.4c-21.9,11.3-40.2,29.3-52.8,51.9c-12.2,21.8-18.6,47-18.6,72.9
			c0,29.9,24.3,54.2,54.2,54.2s54.2-24.3,54.2-54.2c0-9.2,2.9-18.4,7.6-24.1c1.6-1.9,3.2-3.3,4.6-4.1c1.1-0.5,1.7-0.6,2.3-0.6
			c0.5,0,1.1,0.1,2,0.5c2.8,1.6,5.5,4.5,7.7,8.3c3.1,5.6,4.8,12.7,4.8,20v163.5h-225.1c-1.5,0-2.6,1.2-2.6,2.6v34.4
			c0,1.5,1.2,2.6,2.6,2.6h225c0,0,0,189.7,0,189.8c-8.6,2.9-15.7,6.5-21,9.3l-6,3.2c-7,3.8-13,7-19.7,9.5
			c-6.9,2.5-17.1,5.3-34.4,5.4c-12.4,0-22.1-1.4-31.5-4.4c-5.3-1.7-10.2-3.9-16.7-7.3l-6-3.2c-6.9-3.8-14.7-8-24.5-11.6
			c-14.3-5.3-29.7-7.8-48.1-7.8h-17.2c-1.5,0-2.6,1.2-2.6,2.6v34.4c0,1.5,1.2,2.6,2.6,2.6h17.2c12.3,0,22,1.3,31.5,4.3
			c6.4,2.2,11.8,4.8,16.7,7.3l5.2,2.8c7.1,3.9,15.2,8.3,25.2,12c14.2,5.3,29.9,7.9,48.1,7.9c16.4,0,30.8-2.1,43.8-6.4
			c9-3,16.6-6.6,22.8-9.9l6.6-3.5c6.7-3.6,12.6-6.8,19.1-9.2l1.3-0.5c1.3-0.4,2.6-0.9,4.1-1.3c8.4-2.5,17.6-3.6,28.9-3.6
			c12.3,0,22,1.3,31.5,4.3c3.4,1.2,6.6,2.4,9.7,3.8c2.3,1.1,4.6,2.2,7,3.5l5.3,2.8c7.1,3.9,15.1,8.3,25.2,12
			c14.3,5.3,30,7.9,48.1,7.9c16.5,0,30.8-2.1,43.8-6.4c9.5-3.1,17.2-6.9,22.8-9.9l7-3.7c6.6-3.6,12.3-6.6,18.7-9
			c2.1-0.8,4.3-1.4,6.6-2.1c8-2.2,16.9-3.2,27.8-3.2c12.3,0,22,1.3,31.5,4.3c3.8,1.3,7.2,2.7,10.6,4.3c2,0.9,4.1,1.9,6.1,3l5.2,2.8
			c7.1,3.9,15.2,8.3,25.2,12c14.3,5.3,30,7.9,48.1,7.9c16.5,0,30.8-2.1,43.8-6.4c9.1-2.9,16.7-6.6,22.9-9.9l6.3-3.3
			c6.9-3.7,12.8-6.9,19.5-9.3c6.7-2.5,16.8-5.4,34.4-5.4h17.2c1.4,0,2.6-1.2,2.6-2.6v-34.4c0-1.5-1.2-2.6-2.6-2.6h-17.2
			c-16.4,0-30.7,2.1-43.8,6.3c-9.5,3.1-17.2,6.9-22.8,9.9l-5.8,3.1c-7,3.8-13.1,7.1-19.9,9.6c-6.9,2.5-17.1,5.4-34.5,5.4
			c-12.2,0-22.2-1.4-31.5-4.4c-5.3-1.7-10.2-3.9-16.7-7.3l-5.1-2.8c-2.9-1.6-5.9-3.2-9.1-4.8v-198h206.5L-4122.5,441.9
			L-4122.5,441.9L-4122.5,441.9z M-4437.3,631.1c-8.9,2.9-16.4,6.6-22.6,9.8l-6.1,3.3c-6.9,3.7-12.9,7-19.6,9.4
			c-6.8,2.5-16.9,5.4-34.4,5.4c-12.2,0-22.2-1.4-31.5-4.4c-5.2-1.7-10.2-3.9-16.7-7.3l-5.3-2.8c-3.2-1.8-6.7-3.6-10.4-5.5v-63.4
			h146.6C-4437.3,575.7-4437.3,631.1-4437.3,631.1z M-4360,628.1c-10.1-2.3-20.7-3.4-32.2-3.4h-1.1c-4.6,0-8.9,0.2-13,0.5v-77.9
			c0-1.5-1.2-2.6-2.6-2.6h-203.5c-1.5,0-2.6,1.2-2.6,2.6v80.5c-9.5-2.1-19.9-3.1-31.8-3.1c0,0,0,0-0.1,0c-5.4,0-10.1,0.2-14.5,0.6
			V238.8c0-12.8-3.1-24.9-8.9-35.1c-5.2-9.3-12.5-16.7-20.5-20.8c-5.3-2.7-10.6-4-16.2-4s-11,1.3-16.2,4
			c-5.2,2.6-10.2,6.7-14.5,11.9c-9.5,11.3-14.9,27.3-14.9,44c0,12.8-10.4,23.1-23.1,23.1c-12.8,0-23.1-10.4-23.1-23.1
			c0-20.5,5.1-40.5,14.7-57.7c9.7-17.3,23.5-31,39.9-39.4c11.5-5.9,24.4-9,37.4-9c12.8,0,25.7,3.1,37.2,9
			c11,5.7,20.8,13.6,29.2,23.6c16.4,19.9,25.4,46,25.4,73.5v98.1c0,1.4,1.2,2.6,2.6,2.6h203.4c1.4,0,2.6-1.2,2.6-2.6v-98.1
			c0-12.8-3.1-24.9-8.8-35.1c-5.2-9.4-12.5-16.7-20.6-20.7c-5.2-2.7-10.5-4-16.2-4c-5.6,0-11,1.3-16.2,4
			c-5.2,2.6-10.2,6.7-14.6,11.9c-9.5,11.5-14.9,27.5-14.8,43.9c0,12.8-10.4,23.1-23.2,23.1c-12.8,0-23.1-10.4-23.1-23.1
			c0-20.6,5.1-40.6,14.7-57.7c9.7-17.3,23.5-31,39.9-39.4c11.5-5.9,24.4-9,37.4-9c12.8,0,25.7,3.1,37.2,9
			c11.1,5.8,20.9,13.7,29.1,23.6c16.4,19.9,25.4,46,25.5,73.5v389.3H-4360z"/>
	</g>
</g>
<g>
	<path class="st7" d="M-723.2,386.8l290-290c7.3-7.3,19.1-7.3,26.4,0l290,290c7.3,7.3,7.3,19.1,0,26.4l-290,290
		c-7.3,7.3-19.1,7.3-26.4,0l-290-290C-730.5,405.9-730.5,394.1-723.2,386.8z M-420,483.9c-23.2,0-41.9,18.8-41.9,41.9
		c0,23.1,18.8,41.9,41.9,41.9c23.2,0,41.9-18.8,41.9-41.9C-378.1,502.7-396.8,483.9-420,483.9z M-461.9,232.2l14,223.7h55.9
		l14-223.7H-461.9z"/>
</g>
<g id="Navigation__x2F__House_x5F_02">
	<path id="Vector" class="st8" d="M1068.1,387.4v178.3c0,37.3,0,56,7.3,70.3c6.4,12.5,16.6,22.7,29.1,29.1
		c14.2,7.3,32.9,7.3,70.2,7.3h320.2c37.3,0,55.9,0,70.1-7.3c12.5-6.4,22.8-16.6,29.2-29.1c7.3-14.2,7.3-32.9,7.3-70.2V387.4
		c0-17.8,0-26.7-2.2-35c-1.9-7.3-5.1-14.3-9.3-20.6c-4.8-7.1-11.5-13-24.9-24.7l-160-140c-24.9-21.8-37.3-32.7-51.3-36.8
		c-12.3-3.6-25.5-3.6-37.8,0c-14,4.1-26.4,15-51.3,36.8l-160.1,140c-13.4,11.7-20.1,17.6-24.9,24.7c-4.3,6.3-7.4,13.2-9.4,20.6
		C1068.1,360.7,1068.1,369.6,1068.1,387.4z"/>
</g>
<g>
	<rect x="1805.1" y="277" class="st9" width="598.8" height="224.6"/>
	<line class="st9" x1="1904.9" y1="426.7" x2="1954.8" y2="351.9"/>
	<line class="st9" x1="2079.5" y1="426.7" x2="2129.4" y2="351.9"/>
	<line class="st9" x1="2254.2" y1="426.7" x2="2304.1" y2="351.9"/>
	<circle class="st9" cx="1855" cy="152.3" r="49.9"/>
	<circle class="st9" cx="2354" cy="152.3" r="49.9"/>
	<line class="st9" x1="1855" y1="202.2" x2="1855" y2="277"/>
	<line class="st9" x1="2354" y1="202.2" x2="2354" y2="277"/>
	<line class="st9" x1="1855" y1="501.6" x2="1855" y2="661.6"/>
	<line class="st9" x1="2354" y1="501.6" x2="2354" y2="661.6"/>
</g>
</svg>
